<mxfile host="app.diagrams.net" modified="2023-09-14T01:10:24.294Z" agent="Mozilla/5.0 (Windows NT 10.0; Win64; x64) AppleWebKit/537.36 (KHTML, like Gecko) Chrome/117.0.0.0 Safari/537.36" etag="l6str86rstFguUBZCTy9" version="21.7.5" type="device">
  <diagram name="Página-1" id="pbq1AMLj1gSzOU1iwHYS">
    <mxGraphModel dx="2261" dy="782" grid="1" gridSize="10" guides="1" tooltips="1" connect="1" arrows="1" fold="1" page="1" pageScale="1" pageWidth="827" pageHeight="1169" math="0" shadow="0">
      <root>
        <mxCell id="0" />
        <mxCell id="1" parent="0" />
        <mxCell id="qandDCtpEQZRR0sazAkG-20" value="Cliente" style="swimlane;fontStyle=1;align=center;verticalAlign=top;childLayout=stackLayout;horizontal=1;startSize=26;horizontalStack=0;resizeParent=1;resizeParentMax=0;resizeLast=0;collapsible=1;marginBottom=0;whiteSpace=wrap;html=1;" parent="1" vertex="1">
          <mxGeometry x="50" y="180" width="160" height="180" as="geometry" />
        </mxCell>
        <mxCell id="qandDCtpEQZRR0sazAkG-21" value="+ Nome: String&lt;br&gt;+ CPF: String&lt;br&gt;+ Email: String" style="text;strokeColor=none;fillColor=none;align=left;verticalAlign=top;spacingLeft=4;spacingRight=4;overflow=hidden;rotatable=0;points=[[0,0.5],[1,0.5]];portConstraint=eastwest;whiteSpace=wrap;html=1;" parent="qandDCtpEQZRR0sazAkG-20" vertex="1">
          <mxGeometry y="26" width="160" height="84" as="geometry" />
        </mxCell>
        <mxCell id="qandDCtpEQZRR0sazAkG-22" value="" style="line;strokeWidth=1;fillColor=none;align=left;verticalAlign=middle;spacingTop=-1;spacingLeft=3;spacingRight=3;rotatable=0;labelPosition=right;points=[];portConstraint=eastwest;strokeColor=inherit;" parent="qandDCtpEQZRR0sazAkG-20" vertex="1">
          <mxGeometry y="110" width="160" height="8" as="geometry" />
        </mxCell>
        <mxCell id="qandDCtpEQZRR0sazAkG-23" value="+ Registrar_cliente(): void&lt;br&gt;+ Logar(): void" style="text;strokeColor=none;fillColor=none;align=left;verticalAlign=top;spacingLeft=4;spacingRight=4;overflow=hidden;rotatable=0;points=[[0,0.5],[1,0.5]];portConstraint=eastwest;whiteSpace=wrap;html=1;" parent="qandDCtpEQZRR0sazAkG-20" vertex="1">
          <mxGeometry y="118" width="160" height="62" as="geometry" />
        </mxCell>
        <mxCell id="qandDCtpEQZRR0sazAkG-24" value="Fabricante" style="swimlane;fontStyle=1;align=center;verticalAlign=top;childLayout=stackLayout;horizontal=1;startSize=26;horizontalStack=0;resizeParent=1;resizeParentMax=0;resizeLast=0;collapsible=1;marginBottom=0;whiteSpace=wrap;html=1;" parent="1" vertex="1">
          <mxGeometry x="510" y="450" width="160" height="180" as="geometry" />
        </mxCell>
        <mxCell id="qandDCtpEQZRR0sazAkG-25" value="+ Nome: String&lt;br&gt;+ CNPJ: String&lt;br&gt;+ Email: String&lt;br&gt;+ Endereço: String" style="text;strokeColor=none;fillColor=none;align=left;verticalAlign=top;spacingLeft=4;spacingRight=4;overflow=hidden;rotatable=0;points=[[0,0.5],[1,0.5]];portConstraint=eastwest;whiteSpace=wrap;html=1;" parent="qandDCtpEQZRR0sazAkG-24" vertex="1">
          <mxGeometry y="26" width="160" height="84" as="geometry" />
        </mxCell>
        <mxCell id="qandDCtpEQZRR0sazAkG-26" value="" style="line;strokeWidth=1;fillColor=none;align=left;verticalAlign=middle;spacingTop=-1;spacingLeft=3;spacingRight=3;rotatable=0;labelPosition=right;points=[];portConstraint=eastwest;strokeColor=inherit;" parent="qandDCtpEQZRR0sazAkG-24" vertex="1">
          <mxGeometry y="110" width="160" height="8" as="geometry" />
        </mxCell>
        <mxCell id="n9Boxxp4NCEcJIJviEAm-8" value="+ Registrar_fabricante(): void&lt;br&gt;+ Logar(): void" style="text;strokeColor=none;fillColor=none;align=left;verticalAlign=top;spacingLeft=4;spacingRight=4;overflow=hidden;rotatable=0;points=[[0,0.5],[1,0.5]];portConstraint=eastwest;whiteSpace=wrap;html=1;" parent="qandDCtpEQZRR0sazAkG-24" vertex="1">
          <mxGeometry y="118" width="160" height="62" as="geometry" />
        </mxCell>
        <mxCell id="qandDCtpEQZRR0sazAkG-29" value="Pedido&lt;br&gt;" style="swimlane;fontStyle=1;align=center;verticalAlign=top;childLayout=stackLayout;horizontal=1;startSize=26;horizontalStack=0;resizeParent=1;resizeParentMax=0;resizeLast=0;collapsible=1;marginBottom=0;whiteSpace=wrap;html=1;" parent="1" vertex="1">
          <mxGeometry x="350" y="180" width="160" height="160" as="geometry" />
        </mxCell>
        <mxCell id="qandDCtpEQZRR0sazAkG-30" value="+ NumeroPedido: int&lt;br&gt;+ Preço: float&lt;br&gt;+ Status: String&lt;br&gt;+ DataPedido: date&lt;br&gt;+ PrazoEntrega: date" style="text;strokeColor=none;fillColor=none;align=left;verticalAlign=top;spacingLeft=4;spacingRight=4;overflow=hidden;rotatable=0;points=[[0,0.5],[1,0.5]];portConstraint=eastwest;whiteSpace=wrap;html=1;" parent="qandDCtpEQZRR0sazAkG-29" vertex="1">
          <mxGeometry y="26" width="160" height="84" as="geometry" />
        </mxCell>
        <mxCell id="qandDCtpEQZRR0sazAkG-31" value="" style="line;strokeWidth=1;fillColor=none;align=left;verticalAlign=middle;spacingTop=-1;spacingLeft=3;spacingRight=3;rotatable=0;labelPosition=right;points=[];portConstraint=eastwest;strokeColor=inherit;" parent="qandDCtpEQZRR0sazAkG-29" vertex="1">
          <mxGeometry y="110" width="160" height="8" as="geometry" />
        </mxCell>
        <mxCell id="qandDCtpEQZRR0sazAkG-32" value="+ Acompanhar(): String&lt;br&gt;+ Cancelar(): void" style="text;strokeColor=none;fillColor=none;align=left;verticalAlign=top;spacingLeft=4;spacingRight=4;overflow=hidden;rotatable=0;points=[[0,0.5],[1,0.5]];portConstraint=eastwest;whiteSpace=wrap;html=1;" parent="qandDCtpEQZRR0sazAkG-29" vertex="1">
          <mxGeometry y="118" width="160" height="42" as="geometry" />
        </mxCell>
        <mxCell id="qandDCtpEQZRR0sazAkG-34" value="Produto" style="swimlane;fontStyle=1;align=center;verticalAlign=top;childLayout=stackLayout;horizontal=1;startSize=26;horizontalStack=0;resizeParent=1;resizeParentMax=0;resizeLast=0;collapsible=1;marginBottom=0;whiteSpace=wrap;html=1;" parent="1" vertex="1">
          <mxGeometry x="-30" y="510" width="160" height="140" as="geometry" />
        </mxCell>
        <mxCell id="qandDCtpEQZRR0sazAkG-35" value="+ ID_Produto: int&lt;br&gt;+ Preço: float&lt;br&gt;+ Descrição: String&lt;br&gt;+ Nome: String" style="text;strokeColor=none;fillColor=none;align=left;verticalAlign=top;spacingLeft=4;spacingRight=4;overflow=hidden;rotatable=0;points=[[0,0.5],[1,0.5]];portConstraint=eastwest;whiteSpace=wrap;html=1;" parent="qandDCtpEQZRR0sazAkG-34" vertex="1">
          <mxGeometry y="26" width="160" height="74" as="geometry" />
        </mxCell>
        <mxCell id="qandDCtpEQZRR0sazAkG-36" value="" style="line;strokeWidth=1;fillColor=none;align=left;verticalAlign=middle;spacingTop=-1;spacingLeft=3;spacingRight=3;rotatable=0;labelPosition=right;points=[];portConstraint=eastwest;strokeColor=inherit;" parent="qandDCtpEQZRR0sazAkG-34" vertex="1">
          <mxGeometry y="100" width="160" height="8" as="geometry" />
        </mxCell>
        <mxCell id="qandDCtpEQZRR0sazAkG-37" value="+ AdicionarCarrinho(): void" style="text;strokeColor=none;fillColor=none;align=left;verticalAlign=top;spacingLeft=4;spacingRight=4;overflow=hidden;rotatable=0;points=[[0,0.5],[1,0.5]];portConstraint=eastwest;whiteSpace=wrap;html=1;" parent="qandDCtpEQZRR0sazAkG-34" vertex="1">
          <mxGeometry y="108" width="160" height="32" as="geometry" />
        </mxCell>
        <mxCell id="qandDCtpEQZRR0sazAkG-38" value="Catalogo" style="swimlane;fontStyle=1;align=center;verticalAlign=top;childLayout=stackLayout;horizontal=1;startSize=26;horizontalStack=0;resizeParent=1;resizeParentMax=0;resizeLast=0;collapsible=1;marginBottom=0;whiteSpace=wrap;html=1;" parent="1" vertex="1">
          <mxGeometry x="280" y="675" width="160" height="130" as="geometry" />
        </mxCell>
        <mxCell id="qandDCtpEQZRR0sazAkG-39" value="+ ListaProdutos: Produto" style="text;strokeColor=none;fillColor=none;align=left;verticalAlign=top;spacingLeft=4;spacingRight=4;overflow=hidden;rotatable=0;points=[[0,0.5],[1,0.5]];portConstraint=eastwest;whiteSpace=wrap;html=1;" parent="qandDCtpEQZRR0sazAkG-38" vertex="1">
          <mxGeometry y="26" width="160" height="24" as="geometry" />
        </mxCell>
        <mxCell id="qandDCtpEQZRR0sazAkG-40" value="" style="line;strokeWidth=1;fillColor=none;align=left;verticalAlign=middle;spacingTop=-1;spacingLeft=3;spacingRight=3;rotatable=0;labelPosition=right;points=[];portConstraint=eastwest;strokeColor=inherit;" parent="qandDCtpEQZRR0sazAkG-38" vertex="1">
          <mxGeometry y="50" width="160" height="8" as="geometry" />
        </mxCell>
        <mxCell id="qandDCtpEQZRR0sazAkG-41" value="+ VisualizarCatalogo(): Catalogo&lt;br&gt;+ AdicionarProduto(): void&lt;br&gt;+ RemoverProduto(): void" style="text;strokeColor=none;fillColor=none;align=left;verticalAlign=top;spacingLeft=4;spacingRight=4;overflow=hidden;rotatable=0;points=[[0,0.5],[1,0.5]];portConstraint=eastwest;whiteSpace=wrap;html=1;" parent="qandDCtpEQZRR0sazAkG-38" vertex="1">
          <mxGeometry y="58" width="160" height="72" as="geometry" />
        </mxCell>
        <mxCell id="qandDCtpEQZRR0sazAkG-42" value="Dashboard" style="swimlane;fontStyle=1;align=center;verticalAlign=top;childLayout=stackLayout;horizontal=1;startSize=26;horizontalStack=0;resizeParent=1;resizeParentMax=0;resizeLast=0;collapsible=1;marginBottom=0;whiteSpace=wrap;html=1;" parent="1" vertex="1">
          <mxGeometry x="600" y="700" width="160" height="140" as="geometry" />
        </mxCell>
        <mxCell id="qandDCtpEQZRR0sazAkG-43" value="+ DescriçãoProdutos: String&lt;br&gt;+ QuantidadeVendas: int&lt;br&gt;+ Receita: float&lt;br&gt;+ PrazoEntrega: date" style="text;strokeColor=none;fillColor=none;align=left;verticalAlign=top;spacingLeft=4;spacingRight=4;overflow=hidden;rotatable=0;points=[[0,0.5],[1,0.5]];portConstraint=eastwest;whiteSpace=wrap;html=1;" parent="qandDCtpEQZRR0sazAkG-42" vertex="1">
          <mxGeometry y="26" width="160" height="64" as="geometry" />
        </mxCell>
        <mxCell id="qandDCtpEQZRR0sazAkG-44" value="" style="line;strokeWidth=1;fillColor=none;align=left;verticalAlign=middle;spacingTop=-1;spacingLeft=3;spacingRight=3;rotatable=0;labelPosition=right;points=[];portConstraint=eastwest;strokeColor=inherit;" parent="qandDCtpEQZRR0sazAkG-42" vertex="1">
          <mxGeometry y="90" width="160" height="8" as="geometry" />
        </mxCell>
        <mxCell id="qandDCtpEQZRR0sazAkG-45" value="+ VisualizarDashboard(): Dashboard" style="text;strokeColor=none;fillColor=none;align=left;verticalAlign=top;spacingLeft=4;spacingRight=4;overflow=hidden;rotatable=0;points=[[0,0.5],[1,0.5]];portConstraint=eastwest;whiteSpace=wrap;html=1;" parent="qandDCtpEQZRR0sazAkG-42" vertex="1">
          <mxGeometry y="98" width="160" height="42" as="geometry" />
        </mxCell>
        <mxCell id="qandDCtpEQZRR0sazAkG-46" value="Pagamento" style="swimlane;fontStyle=1;align=center;verticalAlign=top;childLayout=stackLayout;horizontal=1;startSize=26;horizontalStack=0;resizeParent=1;resizeParentMax=0;resizeLast=0;collapsible=1;marginBottom=0;whiteSpace=wrap;html=1;" parent="1" vertex="1">
          <mxGeometry x="590" y="185" width="160" height="180" as="geometry">
            <mxRectangle x="380" y="290" width="100" height="30" as="alternateBounds" />
          </mxGeometry>
        </mxCell>
        <mxCell id="qandDCtpEQZRR0sazAkG-47" value="+ TipoPagamento: String&lt;br&gt;+ Valor: float&lt;br&gt;+ Parcelas: int" style="text;strokeColor=none;fillColor=none;align=left;verticalAlign=top;spacingLeft=4;spacingRight=4;overflow=hidden;rotatable=0;points=[[0,0.5],[1,0.5]];portConstraint=eastwest;whiteSpace=wrap;html=1;" parent="qandDCtpEQZRR0sazAkG-46" vertex="1">
          <mxGeometry y="26" width="160" height="64" as="geometry" />
        </mxCell>
        <mxCell id="qandDCtpEQZRR0sazAkG-48" value="" style="line;strokeWidth=1;fillColor=none;align=left;verticalAlign=middle;spacingTop=-1;spacingLeft=3;spacingRight=3;rotatable=0;labelPosition=right;points=[];portConstraint=eastwest;strokeColor=inherit;" parent="qandDCtpEQZRR0sazAkG-46" vertex="1">
          <mxGeometry y="90" width="160" height="8" as="geometry" />
        </mxCell>
        <mxCell id="qandDCtpEQZRR0sazAkG-49" value="+ Pix(): void&lt;br&gt;+ Credito(): void&lt;br&gt;+ Debito(): void&lt;br&gt;+ Boleto(): void&lt;br&gt;+ Pagar(): void" style="text;strokeColor=none;fillColor=none;align=left;verticalAlign=top;spacingLeft=4;spacingRight=4;overflow=hidden;rotatable=0;points=[[0,0.5],[1,0.5]];portConstraint=eastwest;whiteSpace=wrap;html=1;" parent="qandDCtpEQZRR0sazAkG-46" vertex="1">
          <mxGeometry y="98" width="160" height="82" as="geometry" />
        </mxCell>
        <mxCell id="qandDCtpEQZRR0sazAkG-66" value="Frete" style="swimlane;fontStyle=1;align=center;verticalAlign=top;childLayout=stackLayout;horizontal=1;startSize=26;horizontalStack=0;resizeParent=1;resizeParentMax=0;resizeLast=0;collapsible=1;marginBottom=0;whiteSpace=wrap;html=1;" parent="1" vertex="1">
          <mxGeometry x="350" width="160" height="120" as="geometry" />
        </mxCell>
        <mxCell id="qandDCtpEQZRR0sazAkG-67" value="+ Endereço: String&lt;br&gt;+ CalculoValor: float&lt;br&gt;+ Transportadora: String" style="text;strokeColor=none;fillColor=none;align=left;verticalAlign=top;spacingLeft=4;spacingRight=4;overflow=hidden;rotatable=0;points=[[0,0.5],[1,0.5]];portConstraint=eastwest;whiteSpace=wrap;html=1;" parent="qandDCtpEQZRR0sazAkG-66" vertex="1">
          <mxGeometry y="26" width="160" height="54" as="geometry" />
        </mxCell>
        <mxCell id="qandDCtpEQZRR0sazAkG-68" value="" style="line;strokeWidth=1;fillColor=none;align=left;verticalAlign=middle;spacingTop=-1;spacingLeft=3;spacingRight=3;rotatable=0;labelPosition=right;points=[];portConstraint=eastwest;strokeColor=inherit;" parent="qandDCtpEQZRR0sazAkG-66" vertex="1">
          <mxGeometry y="80" width="160" height="8" as="geometry" />
        </mxCell>
        <mxCell id="qandDCtpEQZRR0sazAkG-69" value="+ CalculaFrete(): float" style="text;strokeColor=none;fillColor=none;align=left;verticalAlign=top;spacingLeft=4;spacingRight=4;overflow=hidden;rotatable=0;points=[[0,0.5],[1,0.5]];portConstraint=eastwest;whiteSpace=wrap;html=1;" parent="qandDCtpEQZRR0sazAkG-66" vertex="1">
          <mxGeometry y="88" width="160" height="32" as="geometry" />
        </mxCell>
        <mxCell id="qandDCtpEQZRR0sazAkG-70" value="Carrinho" style="swimlane;fontStyle=1;align=center;verticalAlign=top;childLayout=stackLayout;horizontal=1;startSize=26;horizontalStack=0;resizeParent=1;resizeParentMax=0;resizeLast=0;collapsible=1;marginBottom=0;whiteSpace=wrap;html=1;" parent="1" vertex="1">
          <mxGeometry x="300" y="460" width="160" height="120" as="geometry" />
        </mxCell>
        <mxCell id="qandDCtpEQZRR0sazAkG-71" value="+ ListaProdutos: Produto&lt;br&gt;+ ValorTotal: float" style="text;strokeColor=none;fillColor=none;align=left;verticalAlign=top;spacingLeft=4;spacingRight=4;overflow=hidden;rotatable=0;points=[[0,0.5],[1,0.5]];portConstraint=eastwest;whiteSpace=wrap;html=1;" parent="qandDCtpEQZRR0sazAkG-70" vertex="1">
          <mxGeometry y="26" width="160" height="44" as="geometry" />
        </mxCell>
        <mxCell id="qandDCtpEQZRR0sazAkG-72" value="" style="line;strokeWidth=1;fillColor=none;align=left;verticalAlign=middle;spacingTop=-1;spacingLeft=3;spacingRight=3;rotatable=0;labelPosition=right;points=[];portConstraint=eastwest;strokeColor=inherit;" parent="qandDCtpEQZRR0sazAkG-70" vertex="1">
          <mxGeometry y="70" width="160" height="8" as="geometry" />
        </mxCell>
        <mxCell id="qandDCtpEQZRR0sazAkG-73" value="+ RemoverProduto(): void&lt;br&gt;+AdicionarProduto(): void" style="text;strokeColor=none;fillColor=none;align=left;verticalAlign=top;spacingLeft=4;spacingRight=4;overflow=hidden;rotatable=0;points=[[0,0.5],[1,0.5]];portConstraint=eastwest;whiteSpace=wrap;html=1;" parent="qandDCtpEQZRR0sazAkG-70" vertex="1">
          <mxGeometry y="78" width="160" height="42" as="geometry" />
        </mxCell>
        <mxCell id="qandDCtpEQZRR0sazAkG-74" value="" style="endArrow=none;html=1;rounded=0;exitX=0.5;exitY=0;exitDx=0;exitDy=0;" parent="1" source="qandDCtpEQZRR0sazAkG-29" edge="1">
          <mxGeometry width="50" height="50" relative="1" as="geometry">
            <mxPoint x="400" y="90" as="sourcePoint" />
            <mxPoint x="430" y="120" as="targetPoint" />
          </mxGeometry>
        </mxCell>
        <mxCell id="qandDCtpEQZRR0sazAkG-75" value="" style="endArrow=none;html=1;rounded=0;exitX=-0.012;exitY=0.738;exitDx=0;exitDy=0;entryX=0.994;entryY=0.762;entryDx=0;entryDy=0;entryPerimeter=0;exitPerimeter=0;" parent="1" edge="1">
          <mxGeometry width="50" height="50" relative="1" as="geometry">
            <mxPoint x="349.0799999999999" y="267.99199999999996" as="sourcePoint" />
            <mxPoint x="210.03999999999996" y="270.00800000000004" as="targetPoint" />
          </mxGeometry>
        </mxCell>
        <mxCell id="qandDCtpEQZRR0sazAkG-76" value="" style="endArrow=none;html=1;rounded=0;entryX=-0.006;entryY=0.75;entryDx=0;entryDy=0;entryPerimeter=0;" parent="1" target="qandDCtpEQZRR0sazAkG-47" edge="1">
          <mxGeometry width="50" height="50" relative="1" as="geometry">
            <mxPoint x="510" y="259" as="sourcePoint" />
            <mxPoint x="440" y="130" as="targetPoint" />
          </mxGeometry>
        </mxCell>
        <mxCell id="qandDCtpEQZRR0sazAkG-77" value="" style="endArrow=none;html=1;rounded=0;exitX=0.531;exitY=1;exitDx=0;exitDy=0;exitPerimeter=0;" parent="1" source="qandDCtpEQZRR0sazAkG-32" edge="1">
          <mxGeometry width="50" height="50" relative="1" as="geometry">
            <mxPoint x="520" y="269" as="sourcePoint" />
            <mxPoint x="590" y="450" as="targetPoint" />
          </mxGeometry>
        </mxCell>
        <mxCell id="qandDCtpEQZRR0sazAkG-78" value="" style="endArrow=none;html=1;rounded=0;entryX=1;entryY=0.5;entryDx=0;entryDy=0;exitX=0;exitY=0.5;exitDx=0;exitDy=0;" parent="1" source="qandDCtpEQZRR0sazAkG-71" target="qandDCtpEQZRR0sazAkG-35" edge="1">
          <mxGeometry width="50" height="50" relative="1" as="geometry">
            <mxPoint x="241" y="504" as="sourcePoint" />
            <mxPoint x="240" y="590" as="targetPoint" />
          </mxGeometry>
        </mxCell>
        <mxCell id="qandDCtpEQZRR0sazAkG-79" value="" style="endArrow=none;html=1;rounded=0;entryX=0.5;entryY=0;entryDx=0;entryDy=0;exitX=0.519;exitY=1.048;exitDx=0;exitDy=0;exitPerimeter=0;" parent="1" source="qandDCtpEQZRR0sazAkG-32" target="qandDCtpEQZRR0sazAkG-70" edge="1">
          <mxGeometry width="50" height="50" relative="1" as="geometry">
            <mxPoint x="445" y="350" as="sourcePoint" />
            <mxPoint x="590" y="456" as="targetPoint" />
          </mxGeometry>
        </mxCell>
        <mxCell id="qandDCtpEQZRR0sazAkG-80" value="" style="endArrow=none;html=1;rounded=0;entryX=0.5;entryY=0;entryDx=0;entryDy=0;" parent="1" target="qandDCtpEQZRR0sazAkG-42" edge="1">
          <mxGeometry width="50" height="50" relative="1" as="geometry">
            <mxPoint x="610" y="630" as="sourcePoint" />
            <mxPoint x="590" y="668" as="targetPoint" />
          </mxGeometry>
        </mxCell>
        <mxCell id="qandDCtpEQZRR0sazAkG-81" value="" style="endArrow=none;html=1;rounded=0;entryX=0;entryY=0.028;entryDx=0;entryDy=0;exitX=1;exitY=0.5;exitDx=0;exitDy=0;entryPerimeter=0;" parent="1" source="qandDCtpEQZRR0sazAkG-37" target="qandDCtpEQZRR0sazAkG-41" edge="1">
          <mxGeometry width="50" height="50" relative="1" as="geometry">
            <mxPoint x="443" y="352" as="sourcePoint" />
            <mxPoint x="390" y="470" as="targetPoint" />
          </mxGeometry>
        </mxCell>
        <mxCell id="qandDCtpEQZRR0sazAkG-82" value="" style="endArrow=none;html=1;rounded=0;entryX=-0.012;entryY=0.655;entryDx=0;entryDy=0;exitX=1;exitY=0.014;exitDx=0;exitDy=0;entryPerimeter=0;exitPerimeter=0;" parent="1" source="qandDCtpEQZRR0sazAkG-41" target="qandDCtpEQZRR0sazAkG-25" edge="1">
          <mxGeometry width="50" height="50" relative="1" as="geometry">
            <mxPoint x="460" y="684" as="sourcePoint" />
            <mxPoint x="547" y="610" as="targetPoint" />
          </mxGeometry>
        </mxCell>
        <mxCell id="qandDCtpEQZRR0sazAkG-83" value="1" style="text;html=1;strokeColor=none;fillColor=none;align=center;verticalAlign=middle;whiteSpace=wrap;rounded=0;" parent="1" vertex="1">
          <mxGeometry x="210" y="240" width="60" height="30" as="geometry" />
        </mxCell>
        <mxCell id="qandDCtpEQZRR0sazAkG-86" value="1&amp;nbsp; &amp;nbsp; &amp;nbsp;Possui" style="text;html=1;strokeColor=none;fillColor=none;align=center;verticalAlign=middle;whiteSpace=wrap;rounded=0;" parent="1" vertex="1">
          <mxGeometry x="370" y="120" width="150" height="30" as="geometry" />
        </mxCell>
        <mxCell id="qandDCtpEQZRR0sazAkG-88" value="1" style="text;html=1;strokeColor=none;fillColor=none;align=center;verticalAlign=middle;whiteSpace=wrap;rounded=0;" parent="1" vertex="1">
          <mxGeometry x="330" y="440" width="40" height="10" as="geometry" />
        </mxCell>
        <mxCell id="qandDCtpEQZRR0sazAkG-89" value="1" style="text;html=1;strokeColor=none;fillColor=none;align=center;verticalAlign=middle;whiteSpace=wrap;rounded=0;" parent="1" vertex="1">
          <mxGeometry x="575" y="630" width="40" height="30" as="geometry" />
        </mxCell>
        <mxCell id="qandDCtpEQZRR0sazAkG-90" value="*" style="text;html=1;strokeColor=none;fillColor=none;align=center;verticalAlign=middle;whiteSpace=wrap;rounded=0;" parent="1" vertex="1">
          <mxGeometry x="130" y="585" width="40" height="10" as="geometry" />
        </mxCell>
        <mxCell id="qandDCtpEQZRR0sazAkG-91" value="*" style="text;html=1;strokeColor=none;fillColor=none;align=center;verticalAlign=middle;whiteSpace=wrap;rounded=0;" parent="1" vertex="1">
          <mxGeometry x="40" y="650" width="140" height="30" as="geometry" />
        </mxCell>
        <mxCell id="qandDCtpEQZRR0sazAkG-92" value="1" style="text;html=1;strokeColor=none;fillColor=none;align=center;verticalAlign=middle;whiteSpace=wrap;rounded=0;" parent="1" vertex="1">
          <mxGeometry x="450" y="600" width="30" height="20" as="geometry" />
        </mxCell>
        <mxCell id="J_AtW-fNFrZDu0-3VNVR-1" value="1" style="text;html=1;align=center;verticalAlign=middle;resizable=0;points=[];autosize=1;strokeColor=none;fillColor=none;" vertex="1" parent="1">
          <mxGeometry x="430" y="150" width="30" height="30" as="geometry" />
        </mxCell>
        <mxCell id="J_AtW-fNFrZDu0-3VNVR-5" value="1" style="text;html=1;align=center;verticalAlign=middle;resizable=0;points=[];autosize=1;strokeColor=none;fillColor=none;" vertex="1" parent="1">
          <mxGeometry x="510" y="225" width="30" height="30" as="geometry" />
        </mxCell>
        <mxCell id="J_AtW-fNFrZDu0-3VNVR-6" value="1" style="text;html=1;align=center;verticalAlign=middle;resizable=0;points=[];autosize=1;strokeColor=none;fillColor=none;" vertex="1" parent="1">
          <mxGeometry x="554" y="225" width="30" height="30" as="geometry" />
        </mxCell>
        <mxCell id="J_AtW-fNFrZDu0-3VNVR-7" value="Realiza" style="text;html=1;align=center;verticalAlign=middle;resizable=0;points=[];autosize=1;strokeColor=none;fillColor=none;" vertex="1" parent="1">
          <mxGeometry x="524" y="260" width="60" height="30" as="geometry" />
        </mxCell>
        <mxCell id="J_AtW-fNFrZDu0-3VNVR-8" value="*" style="text;html=1;strokeColor=none;fillColor=none;align=center;verticalAlign=middle;whiteSpace=wrap;rounded=0;" vertex="1" parent="1">
          <mxGeometry x="290" y="240" width="60" height="30" as="geometry" />
        </mxCell>
        <mxCell id="J_AtW-fNFrZDu0-3VNVR-9" value="Possui" style="text;html=1;align=center;verticalAlign=middle;resizable=0;points=[];autosize=1;strokeColor=none;fillColor=none;" vertex="1" parent="1">
          <mxGeometry x="250" y="270" width="60" height="30" as="geometry" />
        </mxCell>
        <mxCell id="J_AtW-fNFrZDu0-3VNVR-10" value="*" style="text;html=1;align=center;verticalAlign=middle;resizable=0;points=[];autosize=1;strokeColor=none;fillColor=none;" vertex="1" parent="1">
          <mxGeometry x="460" y="340" width="30" height="30" as="geometry" />
        </mxCell>
        <mxCell id="J_AtW-fNFrZDu0-3VNVR-11" value="1" style="text;html=1;align=center;verticalAlign=middle;resizable=0;points=[];autosize=1;strokeColor=none;fillColor=none;" vertex="1" parent="1">
          <mxGeometry x="575" y="420" width="30" height="30" as="geometry" />
        </mxCell>
        <mxCell id="J_AtW-fNFrZDu0-3VNVR-12" value="Atende" style="text;html=1;align=center;verticalAlign=middle;resizable=0;points=[];autosize=1;strokeColor=none;fillColor=none;" vertex="1" parent="1">
          <mxGeometry x="500" y="365" width="60" height="30" as="geometry" />
        </mxCell>
        <mxCell id="J_AtW-fNFrZDu0-3VNVR-14" value="1" style="text;html=1;align=center;verticalAlign=middle;resizable=0;points=[];autosize=1;strokeColor=none;fillColor=none;" vertex="1" parent="1">
          <mxGeometry x="400" y="350" width="30" height="30" as="geometry" />
        </mxCell>
        <mxCell id="J_AtW-fNFrZDu0-3VNVR-15" value="possui" style="text;html=1;align=center;verticalAlign=middle;resizable=0;points=[];autosize=1;strokeColor=none;fillColor=none;" vertex="1" parent="1">
          <mxGeometry x="350" y="380" width="60" height="30" as="geometry" />
        </mxCell>
        <mxCell id="J_AtW-fNFrZDu0-3VNVR-16" value="1" style="text;html=1;align=center;verticalAlign=middle;resizable=0;points=[];autosize=1;strokeColor=none;fillColor=none;" vertex="1" parent="1">
          <mxGeometry x="440" y="700" width="30" height="30" as="geometry" />
        </mxCell>
        <mxCell id="J_AtW-fNFrZDu0-3VNVR-17" value="Possui" style="text;html=1;align=center;verticalAlign=middle;resizable=0;points=[];autosize=1;strokeColor=none;fillColor=none;" vertex="1" parent="1">
          <mxGeometry x="470" y="650" width="60" height="30" as="geometry" />
        </mxCell>
        <mxCell id="J_AtW-fNFrZDu0-3VNVR-18" value="1" style="text;html=1;align=center;verticalAlign=middle;resizable=0;points=[];autosize=1;strokeColor=none;fillColor=none;" vertex="1" parent="1">
          <mxGeometry x="710" y="675" width="30" height="30" as="geometry" />
        </mxCell>
        <mxCell id="J_AtW-fNFrZDu0-3VNVR-20" value="Possui" style="text;html=1;align=center;verticalAlign=middle;resizable=0;points=[];autosize=1;strokeColor=none;fillColor=none;" vertex="1" parent="1">
          <mxGeometry x="640" y="645" width="60" height="30" as="geometry" />
        </mxCell>
        <mxCell id="J_AtW-fNFrZDu0-3VNVR-21" value="1" style="text;html=1;align=center;verticalAlign=middle;resizable=0;points=[];autosize=1;strokeColor=none;fillColor=none;" vertex="1" parent="1">
          <mxGeometry x="250" y="738" width="30" height="30" as="geometry" />
        </mxCell>
        <mxCell id="J_AtW-fNFrZDu0-3VNVR-22" value="Possui" style="text;html=1;align=center;verticalAlign=middle;resizable=0;points=[];autosize=1;strokeColor=none;fillColor=none;" vertex="1" parent="1">
          <mxGeometry x="170" y="700" width="60" height="30" as="geometry" />
        </mxCell>
        <mxCell id="J_AtW-fNFrZDu0-3VNVR-23" value="1" style="text;html=1;align=center;verticalAlign=middle;resizable=0;points=[];autosize=1;strokeColor=none;fillColor=none;" vertex="1" parent="1">
          <mxGeometry x="270" y="520" width="30" height="30" as="geometry" />
        </mxCell>
        <mxCell id="J_AtW-fNFrZDu0-3VNVR-24" value="Possui" style="text;html=1;align=center;verticalAlign=middle;resizable=0;points=[];autosize=1;strokeColor=none;fillColor=none;" vertex="1" parent="1">
          <mxGeometry x="200" y="540" width="60" height="30" as="geometry" />
        </mxCell>
      </root>
    </mxGraphModel>
  </diagram>
</mxfile>
